<?xml version="1.0" encoding="iso-8859-1"?>
<!-- Generator: Adobe Illustrator 19.0.0, SVG Export Plug-In . SVG Version: 6.00 Build 0)  -->
<svg version="1.1" id="Capa_1" xmlns="http://www.w3.org/2000/svg" xmlns:xlink="http://www.w3.org/1999/xlink" x="0px" y="0px"
	 viewBox="0 0 480 480" style="enable-background:new 0 0 480 480;" xml:space="preserve">
<g>
	<g>
		<path d="M360,288V152c-0.035-30.913-25.087-55.965-56-56h-8.208c5.294-6.883,8.179-15.316,8.208-24V40
			c-0.019-1.876-0.183-3.749-0.488-5.6c0.286-0.77,0.451-1.58,0.488-2.4c0-17.673-14.327-32-32-32h-48c-4.418,0-8,3.582-8,8
			c0.022,8.419,3.365,16.489,9.304,22.456c-0.821,3.116-1.259,6.321-1.304,9.544v32c0.029,8.684,2.914,17.117,8.208,24H224
			c-30.913,0.035-55.965,25.087-56,56v120h-48v104h88v69.6l-14.656,21.984c-2.439,3.684-1.429,8.648,2.255,11.087
			c1.305,0.864,2.836,1.326,4.401,1.329h128c4.418,0.001,8.001-3.581,8.001-7.999c0-1.581-0.468-3.126-1.345-4.441L320,445.6V288
			H360z M344,272h-24v-16h24V272z M291.056,112L272,150.112V112H291.056z M288,72c0,13.255-10.745,24-24,24s-24-10.745-24-24V40
			c0-0.336,0-0.672,0-1.008c0.704,0.184,1.424,0.28,2.136,0.408c0.464,0.088,0.912,0.2,1.384,0.264
			c1.484,0.217,2.981,0.329,4.48,0.336h40V72z M256,112v38.112L236.944,112H256z M272,16c5.713,0.003,10.991,3.052,13.848,8H248
			c-5.707-0.019-10.975-3.064-13.84-8H272z M184,256h24v16h-24V256z M256,464h-41.048l7.704-11.56
			c0.874-1.316,1.341-2.86,1.344-4.44v-72h32V464z M256,360H136v-37.752l55.888,13.968L256,321.968V360z M256,305.6l-63.888,14.2
			L136,305.752V288h120V305.6z M272,464V288h32v160c0.003,1.58,0.47,3.124,1.344,4.44l7.704,11.56H272z M304,160v112h-80V160h-16v80
			h-24v-88c0.063-20.21,15.222-37.183,35.296-39.52l37.544,75.096c1.971,3.954,6.774,5.562,10.729,3.591
			c1.555-0.775,2.816-2.036,3.591-3.591l37.544-75.096c20.074,2.337,35.233,19.31,35.296,39.52v88h-24v-80H304z"/>
	</g>
</g>
<g>
	<g>
		<rect x="256" y="208" width="16" height="16"/>
	</g>
</g>
<g>
	<g>
		<rect x="256" y="240" width="16" height="16"/>
	</g>
</g>
<g>
</g>
<g>
</g>
<g>
</g>
<g>
</g>
<g>
</g>
<g>
</g>
<g>
</g>
<g>
</g>
<g>
</g>
<g>
</g>
<g>
</g>
<g>
</g>
<g>
</g>
<g>
</g>
<g>
</g>
</svg>
