<?xml version="1.0" encoding="iso-8859-1"?>
<!-- Generator: Adobe Illustrator 19.0.0, SVG Export Plug-In . SVG Version: 6.00 Build 0)  -->
<svg version="1.1" id="Capa_1" xmlns="http://www.w3.org/2000/svg" xmlns:xlink="http://www.w3.org/1999/xlink" x="0px" y="0px"
	 viewBox="0 0 480 480" style="enable-background:new 0 0 480 480;" xml:space="preserve">
<g>
	<g>
		<path d="M174.656,467.56L160,445.6V336h-16v112c0.003,1.58,0.47,3.124,1.344,4.44l7.712,11.56H112V304H96v160H54.944l7.712-11.56
			c0.874-1.316,1.341-2.86,1.344-4.44V288h72v-16H64v-88H48v88H24v-88c0.026-22.08,17.92-39.974,40-40h32v112h16V144h32v-16H64
			c-30.913,0.035-55.965,25.087-56,56v136h40v125.6l-14.656,21.96c-2.452,3.675-1.461,8.643,2.215,11.095
			C36.874,479.532,38.419,480,40,480h128c4.418,0.001,8.001-3.581,8.001-7.999C176.002,470.42,175.533,468.875,174.656,467.56z
			 M48,304H24v-16h24V304z"/>
	</g>
</g>
<g>
	<g>
		<path d="M104,16c-22.091,0-40,17.909-40,40v16c0.026,22.08,17.92,39.974,40,40c22.08-0.026,39.974-17.92,40-40V56
			C144,33.909,126.091,16,104,16z M128,72c0,13.255-10.745,24-24,24S80,85.255,80,72V56c0-13.255,10.745-24,24-24s24,10.745,24,24
			V72z"/>
	</g>
</g>
<g>
	<g>
		<path d="M344,320V168c-0.035-30.913-25.087-55.965-56-56h-80c-30.913,0.035-55.965,25.087-56,56v152h40v125.6l-14.656,21.984
			c-2.439,3.684-1.429,8.648,2.255,11.087c1.305,0.864,2.836,1.326,4.401,1.329h128c4.418,0.001,8.001-3.581,8.001-7.999
			c0-1.581-0.468-3.126-1.345-4.441L304,445.6V320H344z M328,304h-24v-16h24V304z M192,304h-24v-16h24V304z M256,464V304h-16v160
			h-41.056l7.712-11.56c0.874-1.316,1.341-2.86,1.344-4.44V288h80v160c0.003,1.58,0.47,3.124,1.344,4.44l7.712,11.56H256z M288,168
			v104h-80V168h-16v104h-24V168c0.026-22.08,17.92-39.974,40-40h32v128h16V128h32c22.08,0.026,39.974,17.92,40,40v104h-24V168H288z"
			/>
	</g>
</g>
<g>
	<g>
		<path d="M248,0c-22.091,0-40,17.909-40,40v16c0.026,22.08,17.92,39.974,40,40c22.08-0.026,39.974-17.92,40-40V40
			C288,17.909,270.091,0,248,0z M272,56c0,13.255-10.745,24-24,24s-24-10.745-24-24V40c0-13.255,10.745-24,24-24s24,10.745,24,24V56
			z"/>
	</g>
</g>
<g>
	<g>
		<path d="M432,128h-80v16h72v64c0,0.407,0.032,0.814,0.096,1.216L438.672,304H360v16h24v117.336L364,464h-15.056l10.256-20.424
			c0.54-1.114,0.814-2.338,0.8-3.576V336h-16v102.112l-15.2,30.312c-1.975,3.952-0.372,8.757,3.58,10.732
			c1.124,0.562,2.364,0.851,3.62,0.844h32c2.518,0,4.889-1.186,6.4-3.2L384,464v16h16v-16l9.6,12.8c1.511,2.014,3.882,3.2,6.4,3.2
			h32c4.418,0.024,8.02-3.538,8.044-7.956c0.007-1.256-0.282-2.496-0.844-3.62L440,438.112V320h24c4.418,0,8-3.582,8-8V168
			C471.974,145.92,454.081,128.026,432,128z M420,464l-20-26.664V320h24v120c-0.014,1.238,0.26,2.462,0.8,3.576L435.056,464H420z
			 M456,304h-1.136L440,207.384v-62.016c9.582,3.403,15.988,12.464,16,22.632V304z"/>
	</g>
</g>
<g>
	<g>
		<path d="M424,24h-8.248c-6.84-5.172-15.177-7.98-23.752-8c-22.08,0.026-39.974,17.92-40,40v16c0,22.091,17.909,40,40,40
			c0.029,0,0.059,0,0.088,0c1.264,0,2.544-0.064,3.808-0.184c9.321-0.983,17.972-5.302,24.36-12.16
			C427.991,116.888,445.112,127.982,464,128c4.418,0,8-3.582,8-8V72C471.974,45.501,450.499,24.026,424,24z M368,56
			c0-13.255,10.745-24,24-24c5.768,0.004,11.33,2.141,15.616,6c0.487,0.428,1.025,0.796,1.6,1.096
			c-0.208,0.184-0.392,0.392-0.608,0.568c-2.687,2.242-5.535,4.285-8.52,6.112c-0.64,0.392-1.312,0.728-1.968,1.112
			c-2.536,1.464-5.144,2.824-7.784,4.056c-0.856,0.4-1.712,0.8-2.576,1.184c-3.2,1.4-6.4,2.696-9.552,3.792h-0.096
			c-3.2,1.112-6.272,2.04-9.208,2.864L368,59.072V56z M416,70.616c0.27,12.688-9.024,23.559-21.6,25.264
			c-6.768,0.702-13.513-1.529-18.528-6.128c-4.075-3.716-6.752-8.717-7.584-14.168l0.352-0.104c3.336-0.84,6.816-1.84,10.344-2.96
			c0.568-0.176,1.112-0.336,1.68-0.52c3.528-1.16,7.096-2.48,10.656-3.944l2.072-0.872c3.576-1.536,7.112-3.2,10.568-5.112
			c0.536-0.296,1.056-0.624,1.6-0.928c3.564-2.001,6.995-4.23,10.272-6.672l0.112-0.08c0,0.536,0.056,1.072,0.056,1.6V70.616z
			 M456,110.992c-14.118-3.669-23.981-16.405-24-30.992v-9.376v-29.6c14.113,3.667,23.974,16.395,24,30.976V110.992z"/>
	</g>
</g>
<g>
</g>
<g>
</g>
<g>
</g>
<g>
</g>
<g>
</g>
<g>
</g>
<g>
</g>
<g>
</g>
<g>
</g>
<g>
</g>
<g>
</g>
<g>
</g>
<g>
</g>
<g>
</g>
<g>
</g>
</svg>
